{
  "accessors": [
    {
      "name": "Node-Mesh_0_positions",
      "componentType": 5126,
      "count": 2587,
      "min": [
        468324,
        -3733.530029296875,
        -457327
      ],
      "max": [
        565366,
        -233.5279998779297,
        -303051
      ],
      "type": "VEC3",
      "bufferView": 0,
      "byteOffset": 0
    },
    {
      "name": "Node-Mesh_0_normals",
      "componentType": 5126,
      "count": 2587,
      "min": [
        -0.9423067569732666,
        0,
        -0.9417228698730469
      ],
      "max": [
        0.8970687389373779,
        1,
        1
      ],
      "type": "VEC3",
      "bufferView": 1,
      "byteOffset": 0
    },
    {
      "name": "Node-Mesh_0_texcoords",
      "componentType": 5126,
      "count": 2587,
      "min": [
        0,
        -11757
      ],
      "max": [
        8387.580078125,
        1
      ],
      "type": "VEC2",
      "bufferView": 2,
      "byteOffset": 0
    },
    {
      "name": "Node-Mesh_0_indices",
      "componentType": 5123,
      "count": 7437,
      "min": [
        0
      ],
      "max": [
        2586
      ],
      "type": "SCALAR",
      "bufferView": 3,
      "byteOffset": 0
    },
    {
      "name": "Node-Mesh_1_positions",
      "componentType": 5126,
      "count": 40920,
      "min": [
        370381,
        220.4720001220703,
        -554445
      ],
      "max": [
        723586,
        2881.469970703125,
        -158673
      ],
      "type": "VEC3",
      "bufferView": 0,
      "byteOffset": 31044
    },
    {
      "name": "Node-Mesh_1_normals",
      "componentType": 5126,
      "count": 40920,
      "min": [
        -1,
        -1,
        -0.9987154603004456
      ],
      "max": [
        0.9840057492256165,
        1,
        0.8435156941413879
      ],
      "type": "VEC3",
      "bufferView": 1,
      "byteOffset": 31044
    },
    {
      "name": "Node-Mesh_1_texcoords",
      "componentType": 5126,
      "count": 40920,
      "min": [
        -15096.900390625,
        -15580.599609375
      ],
      "max": [
        15095.7001953125,
        12591.400390625
      ],
      "type": "VEC2",
      "bufferView": 2,
      "byteOffset": 20696
    },
    {
      "name": "Node-Mesh_1_indices",
      "componentType": 5123,
      "count": 79485,
      "min": [
        0
      ],
      "max": [
        40919
      ],
      "type": "SCALAR",
      "bufferView": 3,
      "byteOffset": 14876
    },
    {
      "name": "Node-Mesh_2_positions",
      "componentType": 5126,
      "count": 3849,
      "min": [
        370897,
        220.4720001220703,
        -553935
      ],
      "max": [
        619183,
        420.47198486328125,
        -235390
      ],
      "type": "VEC3",
      "bufferView": 0,
      "byteOffset": 522084
    },
    {
      "name": "Node-Mesh_2_normals",
      "componentType": 5126,
      "count": 3849,
      "min": [
        -0.9998798370361328,
        -1,
        -0.9233967661857605
      ],
      "max": [
        0.9840057492256165,
        1,
        0.8435156941413879
      ],
      "type": "VEC3",
      "bufferView": 1,
      "byteOffset": 522084
    },
    {
      "name": "Node-Mesh_2_texcoords",
      "componentType": 5126,
      "count": 3849,
      "min": [
        -4381.58984375,
        -15560.5
      ],
      "max": [
        10506.400390625,
        -3019.35009765625
      ],
      "type": "VEC2",
      "bufferView": 2,
      "byteOffset": 348056
    },
    {
      "name": "Node-Mesh_2_indices",
      "componentType": 5123,
      "count": 10776,
      "min": [
        0
      ],
      "max": [
        3848
      ],
      "type": "SCALAR",
      "bufferView": 3,
      "byteOffset": 173848
    },
    {
      "name": "Node-Mesh_3_positions",
      "componentType": 5126,
      "count": 4167,
      "min": [
        379387,
        220.4720001220703,
        -540154
      ],
      "max": [
        603263,
        270.47198486328125,
        -244971
      ],
      "type": "VEC3",
      "bufferView": 0,
      "byteOffset": 568272
    },
    {
      "name": "Node-Mesh_3_normals",
      "componentType": 5126,
      "count": 4167,
      "min": [
        -1,
        -0.70710688829422,
        -0.8630146980285645
      ],
      "max": [
        0.815253734588623,
        1,
        0.8429613709449768
      ],
      "type": "VEC3",
      "bufferView": 1,
      "byteOffset": 568272
    },
    {
      "name": "Node-Mesh_3_texcoords",
      "componentType": 5126,
      "count": 4167,
      "min": [
        1065.5999755859375,
        -15017.900390625
      ],
      "max": [
        9879.599609375,
        -3396.5400390625
      ],
      "type": "VEC2",
      "bufferView": 2,
      "byteOffset": 378848
    },
    {
      "name": "Node-Mesh_3_indices",
      "componentType": 5123,
      "count": 11475,
      "min": [
        0
      ],
      "max": [
        4166
      ],
      "type": "SCALAR",
      "bufferView": 3,
      "byteOffset": 195400
    },
    {
      "name": "Node-Mesh_4_positions",
      "componentType": 5126,
      "count": 2037,
      "min": [
        352321,
        220.4720001220703,
        -559258
      ],
      "max": [
        720405,
        451.2869873046875,
        -173844
      ],
      "type": "VEC3",
      "bufferView": 0,
      "byteOffset": 618276
    },
    {
      "name": "Node-Mesh_4_normals",
      "componentType": 5126,
      "count": 2037,
      "min": [
        -0.9999999403953552,
        0,
        -0.9999999403953552
      ],
      "max": [
        1,
        1,
        1
      ],
      "type": "VEC3",
      "bufferView": 1,
      "byteOffset": 618276
    },
    {
      "name": "Node-Mesh_4_texcoords",
      "componentType": 5126,
      "count": 2037,
      "min": [
        -14842.900390625,
        -15770
      ],
      "max": [
        15346.099609375,
        -154.66900634765625
      ],
      "type": "VEC2",
      "bufferView": 2,
      "byteOffset": 412184
    },
    {
      "name": "Node-Mesh_4_indices",
      "componentType": 5123,
      "count": 3696,
      "min": [
        0
      ],
      "max": [
        2036
      ],
      "type": "SCALAR",
      "bufferView": 3,
      "byteOffset": 218352
    },
    {
      "name": "Node-Mesh_5_positions",
      "componentType": 5126,
      "count": 1090,
      "min": [
        515058,
        220.4720001220703,
        -496562
      ],
      "max": [
        568239,
        270.47198486328125,
        -262869
      ],
      "type": "VEC3",
      "bufferView": 0,
      "byteOffset": 642720
    },
    {
      "name": "Node-Mesh_5_normals",
      "componentType": 5126,
      "count": 1090,
      "min": [
        -0.8145700097084045,
        0.5791850090026855,
        -0.71434485912323
      ],
      "max": [
        0.8116288185119629,
        1,
        0.8073033690452576
      ],
      "type": "VEC3",
      "bufferView": 1,
      "byteOffset": 642720
    },
    {
      "name": "Node-Mesh_5_texcoords",
      "componentType": 5126,
      "count": 1090,
      "min": [
        6406.97998046875,
        -13301.7001953125
      ],
      "max": [
        8500.7099609375,
        -4101.2001953125
      ],
      "type": "VEC2",
      "bufferView": 2,
      "byteOffset": 428480
    },
    {
      "name": "Node-Mesh_5_indices",
      "componentType": 5123,
      "count": 2982,
      "min": [
        0
      ],
      "max": [
        1089
      ],
      "type": "SCALAR",
      "bufferView": 3,
      "byteOffset": 225744
    },
    {
      "name": "Node-Mesh_6_positions",
      "componentType": 5126,
      "count": 2064,
      "min": [
        454478,
        220.4720001220703,
        -550344
      ],
      "max": [
        570791,
        270.47198486328125,
        -297375
      ],
      "type": "VEC3",
      "bufferView": 0,
      "byteOffset": 655800
    },
    {
      "name": "Node-Mesh_6_normals",
      "componentType": 5126,
      "count": 2064,
      "min": [
        -0.7883421182632446,
        0.5907340049743652,
        -0.7101230621337891
      ],
      "max": [
        0.7208990454673767,
        1,
        0.7205318212509155
      ],
      "type": "VEC3",
      "bufferView": 1,
      "byteOffset": 655800
    },
    {
      "name": "Node-Mesh_6_texcoords",
      "componentType": 5126,
      "count": 2064,
      "min": [
        4021.949951171875,
        -15419.099609375
      ],
      "max": [
        8601.1904296875,
        -5459.68994140625
      ],
      "type": "VEC2",
      "bufferView": 2,
      "byteOffset": 437200
    },
    {
      "name": "Node-Mesh_6_indices",
      "componentType": 5123,
      "count": 5877,
      "min": [
        0
      ],
      "max": [
        2063
      ],
      "type": "SCALAR",
      "bufferView": 3,
      "byteOffset": 231708
    },
    {
      "name": "Node-Mesh_7_positions",
      "componentType": 5126,
      "count": 3002,
      "min": [
        447829,
        220.4720001220703,
        -541826
      ],
      "max": [
        593647,
        270.47198486328125,
        -265917
      ],
      "type": "VEC3",
      "bufferView": 0,
      "byteOffset": 680568
    },
    {
      "name": "Node-Mesh_7_normals",
      "componentType": 5126,
      "count": 3002,
      "min": [
        -0.8297789692878723,
        -1,
        -0.8196645975112915
      ],
      "max": [
        0.7256967425346375,
        1,
        0.8264909386634827
      ],
      "type": "VEC3",
      "bufferView": 1,
      "byteOffset": 680568
    },
    {
      "name": "Node-Mesh_7_texcoords",
      "componentType": 5126,
      "count": 3002,
      "min": [
        3760.159912109375,
        -15083.7001953125
      ],
      "max": [
        9501.0302734375,
        -4221.18017578125
      ],
      "type": "VEC2",
      "bufferView": 2,
      "byteOffset": 453712
    },
    {
      "name": "Node-Mesh_7_indices",
      "componentType": 5123,
      "count": 8328,
      "min": [
        0
      ],
      "max": [
        3001
      ],
      "type": "SCALAR",
      "bufferView": 3,
      "byteOffset": 243464
    },
    {
      "name": "Node-Mesh_8_positions",
      "componentType": 5126,
      "count": 378,
      "min": [
        457247,
        220.4720001220703,
        -535062
      ],
      "max": [
        557491,
        220.4720001220703,
        -262776
      ],
      "type": "VEC3",
      "bufferView": 0,
      "byteOffset": 716592
    },
    {
      "name": "Node-Mesh_8_normals",
      "componentType": 5126,
      "count": 378,
      "min": [
        -0.7201138734817505,
        -0.6988048553466797,
        -0.7990006804466248
      ],
      "max": [
        0.7148019075393677,
        1,
        0.7145830392837524
      ],
      "type": "VEC3",
      "bufferView": 1,
      "byteOffset": 716592
    },
    {
      "name": "Node-Mesh_8_texcoords",
      "componentType": 5126,
      "count": 378,
      "min": [
        4130.9599609375,
        -14817.5
      ],
      "max": [
        8077.5498046875,
        -4097.5498046875
      ],
      "type": "VEC2",
      "bufferView": 2,
      "byteOffset": 477728
    },
    {
      "name": "Node-Mesh_8_indices",
      "componentType": 5123,
      "count": 996,
      "min": [
        0
      ],
      "max": [
        377
      ],
      "type": "SCALAR",
      "bufferView": 3,
      "byteOffset": 260120
    },
    {
      "name": "Node-Mesh_9_positions",
      "componentType": 5126,
      "count": 6284,
      "min": [
        468324,
        -3733.530029296875,
        -457327
      ],
      "max": [
        565366,
        220.4720001220703,
        -303051
      ],
      "type": "VEC3",
      "bufferView": 0,
      "byteOffset": 721128
    },
    {
      "name": "Node-Mesh_9_normals",
      "componentType": 5126,
      "count": 6284,
      "min": [
        -0.9999950528144836,
        0,
        -0.9999951124191284
      ],
      "max": [
        0.9292367100715637,
        1,
        0.9542616009712219
      ],
      "type": "VEC3",
      "bufferView": 1,
      "byteOffset": 721128
    },
    {
      "name": "Node-Mesh_9_texcoords",
      "componentType": 5126,
      "count": 6284,
      "min": [
        -12444.7998046875,
        -154.66900634765625
      ],
      "max": [
        12565.7998046875,
        1
      ],
      "type": "VEC2",
      "bufferView": 2,
      "byteOffset": 480752
    },
    {
      "name": "Node-Mesh_9_indices",
      "componentType": 5123,
      "count": 9636,
      "min": [
        0
      ],
      "max": [
        6283
      ],
      "type": "SCALAR",
      "bufferView": 3,
      "byteOffset": 262112
    }
  ],
  "asset": {
    "generator": "obj2gltf",
    "version": "2.0"
  },
  "buffers": [
    {
      "name": "Q2_4",
      "byteLength": 2405480,
      "uri": "data:application/octet-stream;base64,"
    }
  ],
  "bufferViews": [
    {
      "name": "bufferView_0",
      "buffer": 0,
      "byteLength": 796536,
      "byteOffset": 0,
      "byteStride": 12,
      "target": 34962
    },
    {
      "name": "bufferView_1",
      "buffer": 0,
      "byteLength": 796536,
      "byteOffset": 796536,
      "byteStride": 12,
      "target": 34962
    },
    {
      "name": "bufferView_2",
      "buffer": 0,
      "byteLength": 531024,
      "byteOffset": 1593072,
      "byteStride": 8,
      "target": 34962
    },
    {
      "name": "bufferView_3",
      "buffer": 0,
      "byteLength": 281384,
      "byteOffset": 2124096,
      "target": 34963
    }
  ],
  "materials": [
    {
      "name": "material_0",
      "pbrMetallicRoughness": {
        "baseColorFactor": [
          0.564706,
          0.709804,
          0.737255,
          0.45098000000000005
        ],
        "metallicFactor": 0,
        "roughnessFactor": 1
      },
      "emissiveFactor": [
        0,
        0,
        0
      ],
      "alphaMode": "BLEND",
      "doubleSided": true
    },
    {
      "name": "material_1",
      "pbrMetallicRoughness": {
        "baseColorFactor": [
          0.913725,
          0.909804,
          0.882353,
          1
        ],
        "metallicFactor": 0,
        "roughnessFactor": 1
      },
      "emissiveFactor": [
        0,
        0,
        0
      ],
      "alphaMode": "OPAQUE",
      "doubleSided": false
    },
    {
      "name": "material_2",
      "pbrMetallicRoughness": {
        "baseColorFactor": [
          0.458824,
          0.509804,
          0.411765,
          1
        ],
        "metallicFactor": 0,
        "roughnessFactor": 1
      },
      "emissiveFactor": [
        0,
        0,
        0
      ],
      "alphaMode": "OPAQUE",
      "doubleSided": false
    },
    {
      "name": "material_3",
      "pbrMetallicRoughness": {
        "baseColorFactor": [
          0.8,
          0.784314,
          0.776471,
          1
        ],
        "metallicFactor": 0,
        "roughnessFactor": 1
      },
      "emissiveFactor": [
        0,
        0,
        0
      ],
      "alphaMode": "OPAQUE",
      "doubleSided": false
    },
    {
      "name": "material_4",
      "pbrMetallicRoughness": {
        "baseColorFactor": [
          0.94902,
          0.929412,
          0.901961,
          1
        ],
        "metallicFactor": 0,
        "roughnessFactor": 1
      },
      "emissiveFactor": [
        0,
        0,
        0
      ],
      "alphaMode": "OPAQUE",
      "doubleSided": false
    },
    {
      "name": "material_5",
      "pbrMetallicRoughness": {
        "baseColorFactor": [
          0.682353,
          0.556863,
          0.494118,
          1
        ],
        "metallicFactor": 0,
        "roughnessFactor": 1
      },
      "emissiveFactor": [
        0,
        0,
        0
      ],
      "alphaMode": "OPAQUE",
      "doubleSided": false
    },
    {
      "name": "material_6",
      "pbrMetallicRoughness": {
        "baseColorFactor": [
          0.564706,
          0.521569,
          0.486275,
          1
        ],
        "metallicFactor": 0,
        "roughnessFactor": 1
      },
      "emissiveFactor": [
        0,
        0,
        0
      ],
      "alphaMode": "OPAQUE",
      "doubleSided": false
    },
    {
      "name": "material_7",
      "pbrMetallicRoughness": {
        "baseColorFactor": [
          0.721569,
          0.819608,
          0.67451,
          1
        ],
        "metallicFactor": 0,
        "roughnessFactor": 1
      },
      "emissiveFactor": [
        0,
        0,
        0
      ],
      "alphaMode": "OPAQUE",
      "doubleSided": false
    },
    {
      "name": "material_8",
      "pbrMetallicRoughness": {
        "baseColorFactor": [
          0.74902,
          0.658824,
          0.576471,
          1
        ],
        "metallicFactor": 0,
        "roughnessFactor": 1
      },
      "emissiveFactor": [
        0,
        0,
        0
      ],
      "alphaMode": "OPAQUE",
      "doubleSided": false
    },
    {
      "name": "material_9",
      "pbrMetallicRoughness": {
        "baseColorFactor": [
          0.486275,
          0.603922,
          0.584314,
          1
        ],
        "metallicFactor": 0,
        "roughnessFactor": 1
      },
      "emissiveFactor": [
        0,
        0,
        0
      ],
      "alphaMode": "OPAQUE",
      "doubleSided": false
    }
  ],
  "meshes": [
    {
      "name": "Node-Mesh",
      "primitives": [
        {
          "attributes": {
            "POSITION": 0,
            "NORMAL": 1,
            "TEXCOORD_0": 2
          },
          "indices": 3,
          "material": 0,
          "mode": 4
        },
        {
          "attributes": {
            "POSITION": 4,
            "NORMAL": 5,
            "TEXCOORD_0": 6
          },
          "indices": 7,
          "material": 1,
          "mode": 4
        },
        {
          "attributes": {
            "POSITION": 8,
            "NORMAL": 9,
            "TEXCOORD_0": 10
          },
          "indices": 11,
          "material": 2,
          "mode": 4
        },
        {
          "attributes": {
            "POSITION": 12,
            "NORMAL": 13,
            "TEXCOORD_0": 14
          },
          "indices": 15,
          "material": 3,
          "mode": 4
        },
        {
          "attributes": {
            "POSITION": 16,
            "NORMAL": 17,
            "TEXCOORD_0": 18
          },
          "indices": 19,
          "material": 4,
          "mode": 4
        },
        {
          "attributes": {
            "POSITION": 20,
            "NORMAL": 21,
            "TEXCOORD_0": 22
          },
          "indices": 23,
          "material": 5,
          "mode": 4
        },
        {
          "attributes": {
            "POSITION": 24,
            "NORMAL": 25,
            "TEXCOORD_0": 26
          },
          "indices": 27,
          "material": 6,
          "mode": 4
        },
        {
          "attributes": {
            "POSITION": 28,
            "NORMAL": 29,
            "TEXCOORD_0": 30
          },
          "indices": 31,
          "material": 7,
          "mode": 4
        },
        {
          "attributes": {
            "POSITION": 32,
            "NORMAL": 33,
            "TEXCOORD_0": 34
          },
          "indices": 35,
          "material": 8,
          "mode": 4
        },
        {
          "attributes": {
            "POSITION": 36,
            "NORMAL": 37,
            "TEXCOORD_0": 38
          },
          "indices": 39,
          "material": 9,
          "mode": 4
        }
      ]
    }
  ],
  "nodes": [
    {
      "name": "Node",
      "mesh": 0
    }
  ],
  "scene": 0,
  "scenes": [
    {
      "nodes": [
        0
      ]
    }
  ]
}
