{
  "accessors": [
    {
      "name": "Node-Mesh_0_positions",
      "componentType": 5126,
      "count": 245,
      "min": [
        270958,
        -1597.530029296875,
        -501972
      ],
      "max": [
        480493,
        302.4960021972656,
        -124230
      ],
      "type": "VEC3",
      "bufferView": 0,
      "byteOffset": 0
    },
    {
      "name": "Node-Mesh_0_normals",
      "componentType": 5126,
      "count": 245,
      "min": [
        -0.8122818470001221,
        0.5498732924461365,
        -0.8122782111167908
      ],
      "max": [
        0.8122655153274536,
        1,
        0.8122901916503906
      ],
      "type": "VEC3",
      "bufferView": 1,
      "byteOffset": 0
    },
    {
      "name": "Node-Mesh_0_texcoords",
      "componentType": 5126,
      "count": 245,
      "min": [
        723.9580078125,
        -14870.7001953125
      ],
      "max": [
        17916.19921875,
        0.9911440014839172
      ],
      "type": "VEC2",
      "bufferView": 2,
      "byteOffset": 0
    },
    {
      "name": "Node-Mesh_0_indices",
      "componentType": 5123,
      "count": 555,
      "min": [
        0
      ],
      "max": [
        244
      ],
      "type": "SCALAR",
      "bufferView": 3,
      "byteOffset": 0
    },
    {
      "name": "Node-Mesh_1_positions",
      "componentType": 5126,
      "count": 67,
      "min": [
        252570,
        -97.5281982421875,
        -509718
      ],
      "max": [
        480493,
        -97.5281982421875,
        -124305
      ],
      "type": "VEC3",
      "bufferView": 0,
      "byteOffset": 2940
    },
    {
      "name": "Node-Mesh_1_normals",
      "componentType": 5126,
      "count": 67,
      "min": [
        -0.4757848083972931,
        0.00026899989461526275,
        -0.8795616626739502
      ],
      "max": [
        0,
        1,
        0.7071067690849304
      ],
      "type": "VEC3",
      "bufferView": 1,
      "byteOffset": 2940
    },
    {
      "name": "Node-Mesh_1_texcoords",
      "componentType": 5126,
      "count": 67,
      "min": [
        0,
        -15175.7001953125
      ],
      "max": [
        8973.3798828125,
        0.9911440014839172
      ],
      "type": "VEC2",
      "bufferView": 2,
      "byteOffset": 1960
    },
    {
      "name": "Node-Mesh_1_indices",
      "componentType": 5123,
      "count": 171,
      "min": [
        0
      ],
      "max": [
        66
      ],
      "type": "SCALAR",
      "bufferView": 3,
      "byteOffset": 1112
    },
    {
      "name": "Node-Mesh_2_positions",
      "componentType": 5126,
      "count": 7287,
      "min": [
        14720,
        -1597.530029296875,
        -547155
      ],
      "max": [
        725329,
        420.47198486328125,
        -14945.7001953125
      ],
      "type": "VEC3",
      "bufferView": 0,
      "byteOffset": 3744
    },
    {
      "name": "Node-Mesh_2_normals",
      "componentType": 5126,
      "count": 7287,
      "min": [
        -0.9996572732925415,
        -0.7153608798980713,
        -0.9990795254707336
      ],
      "max": [
        0.9998903274536133,
        1,
        0.9999772310256958
      ],
      "type": "VEC3",
      "bufferView": 1,
      "byteOffset": 3744
    },
    {
      "name": "Node-Mesh_2_texcoords",
      "componentType": 5126,
      "count": 7287,
      "min": [
        -34468.30078125,
        -21502.900390625
      ],
      "max": [
        34435.80078125,
        1.0000619888305664
      ],
      "type": "VEC2",
      "bufferView": 2,
      "byteOffset": 2496
    },
    {
      "name": "Node-Mesh_2_indices",
      "componentType": 5123,
      "count": 13533,
      "min": [
        0
      ],
      "max": [
        7286
      ],
      "type": "SCALAR",
      "bufferView": 3,
      "byteOffset": 1456
    },
    {
      "name": "Node-Mesh_3_positions",
      "componentType": 5126,
      "count": 3182,
      "min": [
        18913.099609375,
        219.3000030517578,
        -707812
      ],
      "max": [
        724714,
        220.47300720214844,
        -21164.099609375
      ],
      "type": "VEC3",
      "bufferView": 0,
      "byteOffset": 91188
    },
    {
      "name": "Node-Mesh_3_normals",
      "componentType": 5126,
      "count": 3182,
      "min": [
        -0.9990831017494202,
        -0.6996142864227295,
        -0.9990795254707336
      ],
      "max": [
        0.9748114347457886,
        1,
        0.9990379810333252
      ],
      "type": "VEC3",
      "bufferView": 1,
      "byteOffset": 91188
    },
    {
      "name": "Node-Mesh_3_texcoords",
      "componentType": 5126,
      "count": 3182,
      "min": [
        -12942.900390625,
        -27828
      ],
      "max": [
        28447.900390625,
        18279.900390625
      ],
      "type": "VEC2",
      "bufferView": 2,
      "byteOffset": 60792
    },
    {
      "name": "Node-Mesh_3_indices",
      "componentType": 5123,
      "count": 8592,
      "min": [
        0
      ],
      "max": [
        3181
      ],
      "type": "SCALAR",
      "bufferView": 3,
      "byteOffset": 28524
    },
    {
      "name": "Node-Mesh_4_positions",
      "componentType": 5126,
      "count": 715,
      "min": [
        72670.703125,
        220.4720001220703,
        -332719
      ],
      "max": [
        650984,
        420.4729919433594,
        -85644.5
      ],
      "type": "VEC3",
      "bufferView": 0,
      "byteOffset": 129372
    },
    {
      "name": "Node-Mesh_4_normals",
      "componentType": 5126,
      "count": 715,
      "min": [
        -0.7629802823066711,
        -1,
        -0.7314717173576355
      ],
      "max": [
        0.734195351600647,
        1,
        0.7409099340438843
      ],
      "type": "VEC3",
      "bufferView": 1,
      "byteOffset": 129372
    },
    {
      "name": "Node-Mesh_4_texcoords",
      "componentType": 5126,
      "count": 715,
      "min": [
        2776.8798828125,
        -13060.5
      ],
      "max": [
        25545.099609375,
        -3333.179931640625
      ],
      "type": "VEC2",
      "bufferView": 2,
      "byteOffset": 86248
    },
    {
      "name": "Node-Mesh_4_indices",
      "componentType": 5123,
      "count": 1806,
      "min": [
        0
      ],
      "max": [
        714
      ],
      "type": "SCALAR",
      "bufferView": 3,
      "byteOffset": 45708
    },
    {
      "name": "Node-Mesh_5_positions",
      "componentType": 5126,
      "count": 6540,
      "min": [
        24783.400390625,
        220.4720001220703,
        -248300
      ],
      "max": [
        723586,
        620.4719848632812,
        -29869.80078125
      ],
      "type": "VEC3",
      "bufferView": 0,
      "byteOffset": 137952
    },
    {
      "name": "Node-Mesh_5_normals",
      "componentType": 5126,
      "count": 6540,
      "min": [
        -0.9787362217903137,
        -1,
        -0.978750467300415
      ],
      "max": [
        0.9788508415222168,
        1,
        0.8122901916503906
      ],
      "type": "VEC3",
      "bufferView": 1,
      "byteOffset": 137952
    },
    {
      "name": "Node-Mesh_5_texcoords",
      "componentType": 5126,
      "count": 6540,
      "min": [
        -29073.19921875,
        -9736.9599609375
      ],
      "max": [
        29073.19921875,
        -70.57450103759766
      ],
      "type": "VEC2",
      "bufferView": 2,
      "byteOffset": 91968
    },
    {
      "name": "Node-Mesh_5_indices",
      "componentType": 5123,
      "count": 13914,
      "min": [
        0
      ],
      "max": [
        6539
      ],
      "type": "SCALAR",
      "bufferView": 3,
      "byteOffset": 49320
    },
    {
      "name": "Node-Mesh_6_positions",
      "componentType": 5126,
      "count": 2171,
      "min": [
        25477.5,
        220.4720001220703,
        -247775
      ],
      "max": [
        722994,
        520.4719848632812,
        -45976
      ],
      "type": "VEC3",
      "bufferView": 0,
      "byteOffset": 216432
    },
    {
      "name": "Node-Mesh_6_normals",
      "componentType": 5126,
      "count": 2171,
      "min": [
        -0.829063892364502,
        -1,
        -0.9169054627418518
      ],
      "max": [
        0.7629899978637695,
        1,
        0.7623013854026794
      ],
      "type": "VEC3",
      "bufferView": 1,
      "byteOffset": 216432
    },
    {
      "name": "Node-Mesh_6_texcoords",
      "componentType": 5126,
      "count": 2171,
      "min": [
        -26364.5,
        -9716.259765625
      ],
      "max": [
        28380.099609375,
        -70.57479858398438
      ],
      "type": "VEC2",
      "bufferView": 2,
      "byteOffset": 144288
    },
    {
      "name": "Node-Mesh_6_indices",
      "componentType": 5123,
      "count": 4686,
      "min": [
        0
      ],
      "max": [
        2170
      ],
      "type": "SCALAR",
      "bufferView": 3,
      "byteOffset": 77148
    },
    {
      "name": "Node-Mesh_7_positions",
      "componentType": 5126,
      "count": 184,
      "min": [
        428601,
        420.47100830078125,
        -159522
      ],
      "max": [
        466174,
        420.4739990234375,
        -116786
      ],
      "type": "VEC3",
      "bufferView": 0,
      "byteOffset": 242484
    },
    {
      "name": "Node-Mesh_7_normals",
      "componentType": 5126,
      "count": 184,
      "min": [
        -0.9842248558998108,
        0.010898998938500881,
        -0.4926683008670807
      ],
      "max": [
        0.2329869270324707,
        1,
        0.3388209939002991
      ],
      "type": "VEC3",
      "bufferView": 1,
      "byteOffset": 242484
    },
    {
      "name": "Node-Mesh_7_texcoords",
      "componentType": 5126,
      "count": 184,
      "min": [
        16789.900390625,
        -6241.72998046875
      ],
      "max": [
        18269.099609375,
        -4559.22998046875
      ],
      "type": "VEC2",
      "bufferView": 2,
      "byteOffset": 161656
    },
    {
      "name": "Node-Mesh_7_indices",
      "componentType": 5123,
      "count": 408,
      "min": [
        0
      ],
      "max": [
        183
      ],
      "type": "SCALAR",
      "bufferView": 3,
      "byteOffset": 86520
    },
    {
      "name": "Node-Mesh_8_positions",
      "componentType": 5126,
      "count": 722,
      "min": [
        337862,
        220.4720001220703,
        -200536
      ],
      "max": [
        585571,
        220.4720001220703,
        -152098
      ],
      "type": "VEC3",
      "bufferView": 0,
      "byteOffset": 244692
    },
    {
      "name": "Node-Mesh_8_normals",
      "componentType": 5126,
      "count": 722,
      "min": [
        -0.762981116771698,
        -1,
        -0.7629848718643188
      ],
      "max": [
        0.762980043888092,
        1,
        0.7623172998428345
      ],
      "type": "VEC3",
      "bufferView": 1,
      "byteOffset": 244692
    },
    {
      "name": "Node-Mesh_8_texcoords",
      "componentType": 5126,
      "count": 722,
      "min": [
        13217.5,
        -7856.4599609375
      ],
      "max": [
        22969.80078125,
        -5949.47021484375
      ],
      "type": "VEC2",
      "bufferView": 2,
      "byteOffset": 163128
    },
    {
      "name": "Node-Mesh_8_indices",
      "componentType": 5123,
      "count": 1863,
      "min": [
        0
      ],
      "max": [
        721
      ],
      "type": "SCALAR",
      "bufferView": 3,
      "byteOffset": 87336
    },
    {
      "name": "Node-Mesh_9_positions",
      "componentType": 5126,
      "count": 388,
      "min": [
        343561,
        220.4720001220703,
        -185172
      ],
      "max": [
        393050,
        220.4720001220703,
        -162652
      ],
      "type": "VEC3",
      "bufferView": 0,
      "byteOffset": 253356
    },
    {
      "name": "Node-Mesh_9_normals",
      "componentType": 5126,
      "count": 388,
      "min": [
        0,
        1,
        0
      ],
      "max": [
        0,
        1,
        0
      ],
      "type": "VEC3",
      "bufferView": 1,
      "byteOffset": 253356
    },
    {
      "name": "Node-Mesh_9_texcoords",
      "componentType": 5126,
      "count": 388,
      "min": [
        13441.900390625,
        -7251.580078125
      ],
      "max": [
        15390.2998046875,
        -6364.97021484375
      ],
      "type": "VEC2",
      "bufferView": 2,
      "byteOffset": 168904
    },
    {
      "name": "Node-Mesh_9_indices",
      "componentType": 5123,
      "count": 1002,
      "min": [
        0
      ],
      "max": [
        387
      ],
      "type": "SCALAR",
      "bufferView": 3,
      "byteOffset": 91064
    },
    {
      "name": "Node-Mesh_10_positions",
      "componentType": 5126,
      "count": 104,
      "min": [
        450746,
        -1597.530029296875,
        -213673
      ],
      "max": [
        480494,
        420.47198486328125,
        -124230
      ],
      "type": "VEC3",
      "bufferView": 0,
      "byteOffset": 258012
    },
    {
      "name": "Node-Mesh_10_normals",
      "componentType": 5126,
      "count": 104,
      "min": [
        -0.9356876015663147,
        -0.12164994329214096,
        -0.9300231337547302
      ],
      "max": [
        0.6890638470649719,
        1,
        1
      ],
      "type": "VEC3",
      "bufferView": 1,
      "byteOffset": 258012
    },
    {
      "name": "Node-Mesh_10_texcoords",
      "componentType": 5126,
      "count": 104,
      "min": [
        -19309.19921875,
        -8373.669921875
      ],
      "max": [
        19343.69921875,
        1.0037510395050049
      ],
      "type": "VEC2",
      "bufferView": 2,
      "byteOffset": 172008
    },
    {
      "name": "Node-Mesh_10_indices",
      "componentType": 5123,
      "count": 171,
      "min": [
        0
      ],
      "max": [
        103
      ],
      "type": "SCALAR",
      "bufferView": 3,
      "byteOffset": 93068
    },
    {
      "name": "Node-Mesh_11_positions",
      "componentType": 5126,
      "count": 3,
      "min": [
        457987,
        220.4720001220703,
        -121997
      ],
      "max": [
        458766,
        220.4720001220703,
        -121753
      ],
      "type": "VEC3",
      "bufferView": 0,
      "byteOffset": 259260
    },
    {
      "name": "Node-Mesh_11_normals",
      "componentType": 5126,
      "count": 3,
      "min": [
        0,
        1,
        0
      ],
      "max": [
        0,
        1,
        0
      ],
      "type": "VEC3",
      "bufferView": 1,
      "byteOffset": 259260
    },
    {
      "name": "Node-Mesh_11_texcoords",
      "componentType": 5126,
      "count": 3,
      "min": [
        17946.80078125,
        -4766.7001953125
      ],
      "max": [
        17976.30078125,
        -4754.77001953125
      ],
      "type": "VEC2",
      "bufferView": 2,
      "byteOffset": 172840
    },
    {
      "name": "Node-Mesh_11_indices",
      "componentType": 5123,
      "count": 3,
      "min": [
        0
      ],
      "max": [
        2
      ],
      "type": "SCALAR",
      "bufferView": 3,
      "byteOffset": 93412
    }
  ],
  "asset": {
    "generator": "obj2gltf",
    "version": "2.0"
  },
  "buffers": [
    {
      "name": "Q2_9",
      "byteLength": 784876,
      "uri": "data:application/octet-stream;base64,"
    }
  ],
  "bufferViews": [
    {
      "name": "bufferView_0",
      "buffer": 0,
      "byteLength": 259296,
      "byteOffset": 0,
      "byteStride": 12,
      "target": 34962
    },
    {
      "name": "bufferView_1",
      "buffer": 0,
      "byteLength": 259296,
      "byteOffset": 259296,
      "byteStride": 12,
      "target": 34962
    },
    {
      "name": "bufferView_2",
      "buffer": 0,
      "byteLength": 172864,
      "byteOffset": 518592,
      "byteStride": 8,
      "target": 34962
    },
    {
      "name": "bufferView_3",
      "buffer": 0,
      "byteLength": 93420,
      "byteOffset": 691456,
      "target": 34963
    }
  ],
  "materials": [
    {
      "name": "material_0",
      "pbrMetallicRoughness": {
        "baseColorFactor": [
          0.564706,
          0.709804,
          0.737255,
          0.45098000000000005
        ],
        "metallicFactor": 0,
        "roughnessFactor": 1
      },
      "emissiveFactor": [
        0,
        0,
        0
      ],
      "alphaMode": "BLEND",
      "doubleSided": true
    },
    {
      "name": "material_1",
      "pbrMetallicRoughness": {
        "baseColorFactor": [
          0.639216,
          0.964706,
          0.956863,
          0.24313700000000005
        ],
        "metallicFactor": 0,
        "roughnessFactor": 1
      },
      "emissiveFactor": [
        0,
        0,
        0
      ],
      "alphaMode": "BLEND",
      "doubleSided": true
    },
    {
      "name": "material_2",
      "pbrMetallicRoughness": {
        "baseColorFactor": [
          0.94902,
          0.929412,
          0.901961,
          1
        ],
        "metallicFactor": 0,
        "roughnessFactor": 1
      },
      "emissiveFactor": [
        0,
        0,
        0
      ],
      "alphaMode": "OPAQUE",
      "doubleSided": false
    },
    {
      "name": "material_3",
      "pbrMetallicRoughness": {
        "baseColorFactor": [
          0.619608,
          0.603922,
          0.584314,
          1
        ],
        "metallicFactor": 0,
        "roughnessFactor": 1
      },
      "emissiveFactor": [
        0,
        0,
        0
      ],
      "alphaMode": "OPAQUE",
      "doubleSided": false
    },
    {
      "name": "material_4",
      "pbrMetallicRoughness": {
        "baseColorFactor": [
          0.8,
          0.784314,
          0.776471,
          1
        ],
        "metallicFactor": 0,
        "roughnessFactor": 1
      },
      "emissiveFactor": [
        0,
        0,
        0
      ],
      "alphaMode": "OPAQUE",
      "doubleSided": false
    },
    {
      "name": "material_5",
      "pbrMetallicRoughness": {
        "baseColorFactor": [
          0.913725,
          0.909804,
          0.882353,
          1
        ],
        "metallicFactor": 0,
        "roughnessFactor": 1
      },
      "emissiveFactor": [
        0,
        0,
        0
      ],
      "alphaMode": "OPAQUE",
      "doubleSided": false
    },
    {
      "name": "material_6",
      "pbrMetallicRoughness": {
        "baseColorFactor": [
          0.458824,
          0.509804,
          0.411765,
          1
        ],
        "metallicFactor": 0,
        "roughnessFactor": 1
      },
      "emissiveFactor": [
        0,
        0,
        0
      ],
      "alphaMode": "OPAQUE",
      "doubleSided": false
    },
    {
      "name": "material_7",
      "pbrMetallicRoughness": {
        "baseColorFactor": [
          0.776471,
          0.776471,
          0.776471,
          1
        ],
        "metallicFactor": 0,
        "roughnessFactor": 1
      },
      "emissiveFactor": [
        0,
        0,
        0
      ],
      "alphaMode": "OPAQUE",
      "doubleSided": false
    },
    {
      "name": "material_8",
      "pbrMetallicRoughness": {
        "baseColorFactor": [
          0.721569,
          0.819608,
          0.67451,
          1
        ],
        "metallicFactor": 0,
        "roughnessFactor": 1
      },
      "emissiveFactor": [
        0,
        0,
        0
      ],
      "alphaMode": "OPAQUE",
      "doubleSided": false
    },
    {
      "name": "material_9",
      "pbrMetallicRoughness": {
        "baseColorFactor": [
          0.74902,
          0.658824,
          0.576471,
          1
        ],
        "metallicFactor": 0,
        "roughnessFactor": 1
      },
      "emissiveFactor": [
        0,
        0,
        0
      ],
      "alphaMode": "OPAQUE",
      "doubleSided": false
    },
    {
      "name": "material_10",
      "pbrMetallicRoughness": {
        "baseColorFactor": [
          0.486275,
          0.603922,
          0.584314,
          1
        ],
        "metallicFactor": 0,
        "roughnessFactor": 1
      },
      "emissiveFactor": [
        0,
        0,
        0
      ],
      "alphaMode": "OPAQUE",
      "doubleSided": false
    },
    {
      "name": "material_11",
      "pbrMetallicRoughness": {
        "baseColorFactor": [
          0.192157,
          0.486275,
          0.176471,
          1
        ],
        "metallicFactor": 0,
        "roughnessFactor": 1
      },
      "emissiveFactor": [
        0,
        0,
        0
      ],
      "alphaMode": "OPAQUE",
      "doubleSided": false
    }
  ],
  "meshes": [
    {
      "name": "Node-Mesh",
      "primitives": [
        {
          "attributes": {
            "POSITION": 0,
            "NORMAL": 1,
            "TEXCOORD_0": 2
          },
          "indices": 3,
          "material": 0,
          "mode": 4
        },
        {
          "attributes": {
            "POSITION": 4,
            "NORMAL": 5,
            "TEXCOORD_0": 6
          },
          "indices": 7,
          "material": 1,
          "mode": 4
        },
        {
          "attributes": {
            "POSITION": 8,
            "NORMAL": 9,
            "TEXCOORD_0": 10
          },
          "indices": 11,
          "material": 2,
          "mode": 4
        },
        {
          "attributes": {
            "POSITION": 12,
            "NORMAL": 13,
            "TEXCOORD_0": 14
          },
          "indices": 15,
          "material": 3,
          "mode": 4
        },
        {
          "attributes": {
            "POSITION": 16,
            "NORMAL": 17,
            "TEXCOORD_0": 18
          },
          "indices": 19,
          "material": 4,
          "mode": 4
        },
        {
          "attributes": {
            "POSITION": 20,
            "NORMAL": 21,
            "TEXCOORD_0": 22
          },
          "indices": 23,
          "material": 5,
          "mode": 4
        },
        {
          "attributes": {
            "POSITION": 24,
            "NORMAL": 25,
            "TEXCOORD_0": 26
          },
          "indices": 27,
          "material": 6,
          "mode": 4
        },
        {
          "attributes": {
            "POSITION": 28,
            "NORMAL": 29,
            "TEXCOORD_0": 30
          },
          "indices": 31,
          "material": 7,
          "mode": 4
        },
        {
          "attributes": {
            "POSITION": 32,
            "NORMAL": 33,
            "TEXCOORD_0": 34
          },
          "indices": 35,
          "material": 8,
          "mode": 4
        },
        {
          "attributes": {
            "POSITION": 36,
            "NORMAL": 37,
            "TEXCOORD_0": 38
          },
          "indices": 39,
          "material": 9,
          "mode": 4
        },
        {
          "attributes": {
            "POSITION": 40,
            "NORMAL": 41,
            "TEXCOORD_0": 42
          },
          "indices": 43,
          "material": 10,
          "mode": 4
        },
        {
          "attributes": {
            "POSITION": 44,
            "NORMAL": 45,
            "TEXCOORD_0": 46
          },
          "indices": 47,
          "material": 11,
          "mode": 4
        }
      ]
    }
  ],
  "nodes": [
    {
      "name": "Node",
      "mesh": 0
    }
  ],
  "scene": 0,
  "scenes": [
    {
      "nodes": [
        0
      ]
    }
  ]
}
